<svg version="1.1" id="Layer_1" xmlns="http://www.w3.org/2000/svg" xmlns:xlink="http://www.w3.org/1999/xlink" x="0px" y="0px"
	 width="100%" viewBox="0 0 3840 2400" enable-background="new 0 0 3840 2400" xml:space="preserve">
<path fill="#0D0D0D" opacity="1.000000" stroke="none" 
	d="
M2944.000000,2.000000 
	C3243.333252,2.000000 3542.666748,2.000000 3842.000000,2.000000 
	C3842.000000,10.786973 3842.000000,19.445230 3841.461914,29.439087 
	C3838.044189,33.549137 3835.118896,36.277626 3832.291748,39.104420 
	C3596.376953,275.006317 3360.468262,510.914429 3124.562500,746.825317 
	C2823.375488,1048.018066 2522.191650,1349.213867 2221.005127,1650.407104 
	C2218.648438,1652.763672 2216.313965,1655.144653 2213.899902,1657.441772 
	C2205.868652,1665.084229 2204.088867,1665.034180 2195.879639,1657.015137 
	C2194.211182,1655.385010 2192.583496,1653.712646 2190.949219,1652.047729 
	C2167.609619,1628.267334 2144.387451,1604.370117 2120.908447,1580.728027 
	C2076.520752,1536.032593 2031.987305,1491.482300 1987.509277,1446.876831 
	C1985.391602,1444.753174 1983.359741,1442.513672 1981.049561,1440.619019 
	C1976.347168,1436.762817 1974.169678,1437.264893 1968.493286,1443.089722 
	C1963.240112,1448.479980 1962.822021,1450.152588 1966.913696,1454.870239 
	C1971.055786,1459.645874 1975.634888,1464.047485 1980.092041,1468.543945 
	C2046.252808,1535.286133 2112.450439,1601.991699 2178.570801,1668.773926 
	C2190.375488,1680.696899 2190.257812,1681.135010 2178.039307,1693.356445 
	C2112.530029,1758.881470 2047.004883,1824.390137 1981.482666,1889.902100 
	C1967.568237,1903.814575 1968.657349,1904.368652 1954.403564,1890.112671 
	C1747.028442,1682.703979 1539.646240,1475.302612 1332.242798,1267.922241 
	C1312.211304,1247.892822 1292.027588,1228.015747 1272.171875,1207.432373 
	C1275.545410,1202.933350 1278.335449,1198.744141 1281.824219,1195.253052 
	C1428.323242,1048.651489 1574.881592,902.109009 1721.458130,755.584961 
	C1724.986328,752.057983 1728.805420,748.822144 1732.986816,745.891479 
	C1736.831543,749.581299 1740.220581,752.787842 1743.519043,756.085022 
	C1811.145996,823.690674 1878.761353,891.308105 1946.384521,958.917419 
	C1951.096680,963.628723 1955.713501,968.448425 1960.625122,972.944092 
	C1966.433350,978.260376 1968.448486,978.316711 1974.161011,972.902283 
	C1981.654907,965.799377 1988.837524,958.367737 1996.141113,951.064514 
	C2308.782959,638.434570 2621.425293,325.805420 2934.037842,13.146685 
	C2937.555908,9.628245 2940.687744,5.724084 2944.000000,2.000000 
z"/>
<path fill="#0D0D0D" opacity="1.000000" stroke="none" 
	d="
M1480.000000,2402.000000 
	C1173.951904,2402.000000 867.903687,2402.000000 560.516174,2401.479736 
	C556.903015,2398.528564 554.697937,2396.028809 552.345642,2393.676270 
	C391.776001,2233.085205 231.195450,2072.504883 70.606491,1911.933105 
	C68.489380,1909.816284 66.547508,1907.234009 63.982719,1905.949219 
	C62.013649,1904.963013 58.817699,1904.895630 56.840496,1905.835449 
	C54.256607,1907.063843 52.261932,1909.613892 50.143311,1911.725220 
	C37.878620,1923.947754 25.779379,1936.340332 13.325396,1948.366089 
	C10.100290,1951.480347 5.804159,1953.485474 1.999999,1956.000000 
	C2.000000,1649.285156 2.000000,1342.570312 2.631264,1034.681641 
	C6.607642,1030.802490 10.200964,1028.349487 13.254646,1025.347778 
	C26.086426,1012.733887 38.702690,999.901001 51.506081,987.257874 
	C59.447166,979.416199 61.047153,979.358276 68.613762,986.829102 
	C99.199104,1017.027283 129.837616,1047.173218 160.218018,1077.576782 
	C199.302948,1116.691650 238.148819,1156.045288 277.120514,1195.273438 
	C288.053741,1206.278564 290.173798,1205.191162 276.926147,1218.433472 
	C208.816818,1286.514893 140.757828,1354.646606 72.686584,1422.766113 
	C69.860657,1425.594116 66.907631,1428.322754 64.331917,1431.366699 
	C60.096935,1436.371582 60.472694,1438.774780 65.758759,1444.084473 
	C70.999161,1449.348267 73.569527,1449.812256 78.486816,1445.539673 
	C82.754654,1441.831543 86.653152,1437.693115 90.654594,1433.684692 
	C158.681244,1365.536865 226.688049,1297.369141 294.732300,1229.238770 
	C302.237427,1221.724121 303.952362,1221.722046 310.939026,1228.672363 
	C350.143097,1267.673096 389.357727,1306.663208 428.506531,1345.719360 
	C467.183502,1384.304932 505.789398,1422.961792 544.421021,1461.592773 
	C571.503967,1488.675293 598.633606,1515.711548 625.643066,1542.867310 
	C666.514587,1583.960083 707.240356,1625.197876 748.138428,1666.264282 
	C787.396667,1705.683960 826.768005,1744.991211 866.145874,1784.291260 
	C881.710266,1799.824829 897.517517,1815.115356 913.057190,1830.673218 
	C964.856812,1882.533447 1016.531921,1934.518066 1068.363892,1986.345947 
	C1093.796387,2011.776733 1119.580200,2036.856323 1145.006836,2062.292969 
	C1179.153442,2096.453125 1213.078735,2130.834229 1247.153931,2165.065918 
	C1280.522827,2198.588135 1313.902466,2232.100342 1347.383057,2265.510986 
	C1386.286865,2304.333984 1425.402344,2342.945557 1464.173462,2381.900146 
	C1470.149292,2387.904297 1477.650269,2393.015137 1480.000000,2402.000000 
z"/>
<path fill="#0D0D0D" opacity="1.000000" stroke="none" 
	d="
M3842.000000,62.000000 
	C3842.000000,214.041794 3842.000000,366.083588 3841.474854,519.468872 
	C3837.314941,524.238037 3833.589355,527.572876 3830.058350,531.102356 
	C3616.800049,744.274658 3403.556885,957.462524 3190.313232,1170.649536 
	C3163.451416,1197.504272 3136.705811,1224.476440 3109.703613,1251.189087 
	C3077.273926,1283.270874 3044.366211,1314.872803 3012.141846,1347.157837 
	C2974.506348,1384.864868 2937.516602,1423.215698 2900.003906,1461.046143 
	C2861.526367,1499.849731 2822.753906,1538.360962 2784.112793,1577.002319 
	C2676.906982,1684.208252 2569.719727,1791.432861 2462.433350,1898.558228 
	C2458.019043,1902.965820 2452.679443,1906.446533 2447.266602,1909.916504 
	C2423.376221,1885.747803 2400.081543,1861.930298 2376.584229,1838.314819 
	C2327.225098,1788.706909 2277.748047,1739.216309 2228.347900,1689.649170 
	C2219.866699,1681.139160 2219.922607,1680.420898 2228.087402,1672.040039 
	C2228.552490,1671.562622 2229.026855,1671.094604 2229.497559,1670.622925 
	C2337.295898,1562.581909 2445.060303,1454.507324 2552.914062,1346.521973 
	C2582.814697,1316.584961 2613.069580,1287.001587 2643.007812,1257.101929 
	C2719.638428,1180.569946 2796.182861,1103.951538 2872.761719,1027.367554 
	C2941.325928,958.798523 3009.887451,890.227295 3078.453613,821.660400 
	C3199.096680,701.016418 3319.762939,580.395630 3440.374512,459.719971 
	C3477.593018,422.481628 3514.595459,385.027344 3551.824219,347.799072 
	C3588.813477,310.810608 3626.010010,274.029510 3663.030518,237.072205 
	C3718.453125,181.744675 3773.764893,126.306473 3829.262695,71.054863 
	C3832.904053,67.429581 3837.726807,64.990692 3842.000000,62.000000 
z"/>
<path fill="#0D0D0D" opacity="1.000000" stroke="none" 
	d="
M1954.000000,2402.000000 
	C1807.291504,2402.000000 1660.583130,2402.000000 1512.671875,2401.382080 
	C1507.520874,2396.275391 1503.807861,2391.551758 1499.590454,2387.332031 
	C1372.592896,2260.263184 1245.538940,2133.250977 1118.507324,2006.215820 
	C855.723999,1743.425659 592.949463,1480.626587 330.166748,1217.835815 
	C317.765015,1205.433716 317.739471,1205.373779 330.398712,1192.681763 
	C396.539825,1126.369873 462.673798,1060.050903 528.855408,993.779541 
	C532.371643,990.258484 536.298950,987.148010 540.425049,984.391235 
	C543.964417,988.373779 546.987305,991.937805 550.280640,995.231445 
	C888.437744,1333.412964 1226.616455,1671.572998 1564.791016,2009.737183 
	C1690.869995,2135.812500 1816.956909,2261.879639 1942.953613,2388.036865 
	C1947.119507,2392.208252 1950.339233,2397.324219 1954.000000,2402.000000 
z"/>
<path fill="#0D0D0D" opacity="1.000000" stroke="none" 
	d="
M3842.000000,1014.000000 
	C3842.000000,1320.714844 3842.000000,1627.429688 3841.379883,1935.331665 
	C3837.232666,1939.540405 3833.500732,1942.355713 3830.212646,1945.618042 
	C3812.007812,1963.681152 3793.898193,1981.840454 3775.779541,1999.990234 
	C3729.189209,2046.660278 3682.610840,2093.342285 3635.489258,2139.626465 
	C3631.538330,2136.056152 3628.023193,2132.981445 3624.727783,2129.687012 
	C3478.347412,1983.338623 3331.990479,1836.966797 3185.596436,1690.632080 
	C3181.837646,1686.875000 3177.694824,1683.502441 3174.104736,1679.384399 
	C3178.826416,1674.224976 3183.068115,1669.525146 3187.538330,1665.053955 
	C3340.663086,1511.891968 3493.809326,1358.751465 3646.953613,1205.608887 
	C3707.739990,1144.822998 3768.500488,1084.010986 3829.391357,1023.329834 
	C3833.054688,1019.678711 3837.772705,1017.085388 3842.000000,1014.000000 
z"/>
<path fill="#0D0D0D" opacity="1.000000" stroke="none" 
	d="
M3376.000000,2402.000000 
	C3229.291504,2402.000000 3082.583008,2402.000000 2934.687012,2401.374512 
	C2930.739014,2397.437256 2928.208496,2393.898438 2925.185059,2390.847412 
	C2852.986816,2317.981934 2780.735596,2245.168701 2708.492920,2172.347168 
	C2693.883057,2157.620361 2693.310547,2159.253662 2708.710205,2143.854492 
	C2854.026855,1998.542236 2999.325684,1853.212402 3144.655762,1707.913574 
	C3149.595215,1702.974976 3154.809326,1698.310913 3160.293213,1694.084473 
	C3164.997803,1699.273193 3169.167236,1704.033813 3173.631592,1708.499512 
	C3317.683105,1852.596558 3461.776367,1996.651611 3605.781982,2140.794189 
	C3610.675049,2145.692139 3614.730957,2151.426025 3618.648438,2157.220459 
	C3540.054932,2235.729492 3461.977539,2313.775635 3383.972412,2391.893799 
	C3380.961182,2394.909424 3378.641602,2398.615723 3376.000000,2402.000000 
z"/>
<path fill="#0D0D0D" opacity="1.000000" stroke="none" 
	d="
M576.000000,1.999993 
	C714.041809,2.000000 852.083557,2.000000 991.299072,2.632617 
	C995.923706,7.295312 999.125366,11.574302 1002.862915,15.318343 
	C1065.009033,77.571259 1127.222778,139.756836 1189.420410,201.958389 
	C1203.085083,215.623871 1216.796143,229.243408 1230.390381,242.978592 
	C1238.855347,251.531296 1238.760620,252.701340 1230.164917,261.546295 
	C1229.932739,261.785217 1229.696289,262.020081 1229.462036,262.257019 
	C1190.120483,302.065491 1150.929565,342.024170 1111.408325,381.653595 
	C1004.355652,488.999420 897.164673,596.207458 790.022217,703.463867 
	C778.908447,714.589478 778.879761,714.579712 767.440491,703.141724 
	C664.004272,599.717224 560.583984,496.276794 457.132111,392.867889 
	C412.123047,347.877563 367.051514,302.949738 322.402100,257.459625 
	C326.204102,253.285263 329.512024,249.544556 333.035339,246.019073 
	C410.419891,168.587402 487.835297,91.186615 565.210938,13.746081 
	C568.965271,9.988573 572.410706,5.922402 576.000000,1.999993 
z"/>
<path fill="#0D0D0D" opacity="1.000000" stroke="none" 
	d="
M2476.000000,2.000006 
	C2621.375244,2.000000 2766.750244,2.000000 2912.846191,2.642362 
	C2910.376953,7.092113 2907.460938,11.174275 2903.955566,14.664155 
	C2871.142090,47.331001 2838.143311,79.812065 2805.367432,112.516571 
	C2775.905273,141.914551 2746.730713,171.600540 2717.291016,201.021164 
	C2688.785645,229.508072 2659.999756,257.714722 2631.529541,286.236603 
	C2604.946533,312.867859 2578.728027,339.863342 2552.139160,366.488739 
	C2531.196533,387.460144 2509.789551,407.967743 2488.849609,428.941528 
	C2459.910400,457.927124 2431.312500,487.253326 2402.395508,516.261292 
	C2353.481934,565.328796 2304.459229,614.287842 2255.419922,663.229675 
	C2244.575684,674.052429 2233.330322,684.474243 2222.516846,695.326599 
	C2204.894531,713.011902 2187.592529,731.016174 2169.943848,748.674438 
	C2144.283447,774.348633 2118.342285,799.742310 2092.689697,825.424072 
	C2055.021729,863.134644 2017.517212,901.008606 1979.911377,938.781250 
	C1967.771973,950.974487 1967.719971,950.934631 1955.868652,939.082581 
	C1895.090088,878.299927 1834.305542,817.523193 1773.548218,756.719482 
	C1764.837280,748.001953 1756.262085,739.148926 1748.040894,729.800110 
	C1752.340698,725.121155 1756.106812,720.883057 1760.123779,716.897949 
	C1837.003418,640.629395 1914.123169,564.601562 1990.771606,488.101440 
	C2149.522949,329.657440 2308.030273,170.968750 2466.611816,12.354884 
	C2469.901855,9.064077 2472.877686,5.458646 2476.000000,2.000006 
z"/>
<path fill="#0D0D0D" opacity="1.000000" stroke="none" 
	d="
M3842.000000,552.000061 
	C3842.000000,694.708435 3842.000000,837.416931 3841.450684,981.435181 
	C3836.130371,987.397095 3831.307373,991.997131 3826.595215,996.708679 
	C3607.898193,1215.381470 3389.213379,1434.066406 3170.501953,1652.725098 
	C3166.504395,1656.721680 3162.203857,1660.415161 3157.657715,1663.693115 
	C3153.183350,1658.752563 3149.223389,1654.241699 3144.989746,1650.004272 
	C3081.853760,1586.811768 3018.681152,1523.655273 2955.517822,1460.489624 
	C2943.033203,1448.004517 2943.036133,1448.004395 2955.490234,1435.549927 
	C3120.234619,1270.802124 3284.977783,1106.053589 3449.721680,941.305481 
	C3576.284180,814.739075 3702.834961,688.160767 3829.473145,561.670044 
	C3833.175293,557.972534 3837.803711,555.202515 3842.000000,552.000061 
z"/>
<path fill="#0D0D0D" opacity="1.000000" stroke="none" 
	d="
M1516.000000,2.000001 
	C1658.041748,2.000000 1800.083618,2.000000 1943.433838,2.555846 
	C1950.373413,9.235262 1955.920166,15.439475 1961.669067,21.450487 
	C1964.855835,24.782711 1968.732422,25.670797 1972.174805,21.997431 
	C1978.278809,15.483667 1984.074951,8.681502 1990.000000,1.999988 
	C2140.041748,2.000000 2290.083740,2.000000 2440.824707,2.637099 
	C2438.186523,7.380935 2435.184082,11.822367 2431.463135,15.546198 
	C2284.282227,162.845795 2137.038086,310.082306 1989.793945,457.318939 
	C1978.040283,469.071869 1977.984619,469.073883 1966.201904,457.301422 
	C1913.185425,404.331757 1860.260132,351.270569 1807.152222,298.392883 
	C1778.848267,270.211670 1750.090576,242.485809 1721.817505,214.274124 
	C1700.844482,193.346695 1680.458862,171.831757 1659.559448,150.829346 
	C1639.839966,131.012650 1619.759277,111.555855 1599.895020,91.882721 
	C1571.525757,63.786613 1543.208618,35.637833 1515.033936,6.826653 
	C1515.465698,4.761199 1515.732788,3.380600 1516.000000,2.000001 
z"/>
<path fill="#1C1C1C" opacity="1.000000" stroke="none" 
	d="
M1514.869385,7.511536 
	C1543.208618,35.637833 1571.525757,63.786613 1599.895020,91.882721 
	C1619.759277,111.555855 1639.839966,131.012650 1659.559448,150.829346 
	C1680.458862,171.831757 1700.844482,193.346695 1721.817505,214.274124 
	C1750.090576,242.485809 1778.848267,270.211670 1807.152222,298.392883 
	C1860.260132,351.270569 1913.185425,404.331757 1966.201904,457.301422 
	C1977.984619,469.073883 1978.040283,469.071869 1989.793945,457.318939 
	C2137.038086,310.082306 2284.282227,162.845795 2431.463135,15.546198 
	C2435.184082,11.822367 2438.186523,7.380935 2441.762207,2.637099 
	C2452.709961,2.000000 2463.419678,2.000000 2475.064941,2.000006 
	C2472.877686,5.458646 2469.901855,9.064077 2466.611816,12.354884 
	C2308.030273,170.968750 2149.522949,329.657440 1990.771606,488.101440 
	C1914.123169,564.601562 1837.003418,640.629395 1760.123779,716.897949 
	C1756.106812,720.883057 1752.340698,725.121155 1747.385010,729.898743 
	C1738.907349,732.924927 1733.880249,737.500671 1732.488770,745.450562 
	C1728.805420,748.822144 1724.986328,752.057983 1721.458130,755.584961 
	C1574.881592,902.109009 1428.323242,1048.651489 1281.824219,1195.253052 
	C1278.335449,1198.744141 1275.545410,1202.933350 1271.597534,1207.321167 
	C1261.802979,1207.931152 1259.708618,1215.368896 1255.736816,1221.848145 
	C1250.867920,1226.466675 1246.465820,1230.539185 1242.227295,1234.775513 
	C1176.941895,1300.027588 1111.679077,1365.302246 1046.407837,1430.568481 
	C1031.950195,1445.024902 1031.932861,1445.031006 1046.356567,1459.454834 
	C1351.729614,1764.827637 1657.105103,2070.197754 1962.482056,2375.566895 
	C1973.901978,2386.986572 1974.120605,2386.979248 1985.338379,2375.762207 
	C2131.197510,2229.914551 2277.060791,2084.071289 2422.896973,1938.200684 
	C2426.895508,1934.201050 2430.606201,1929.913574 2435.113037,1925.638794 
	C2442.649170,1922.740356 2449.206543,1919.712402 2447.770752,1910.359131 
	C2452.679443,1906.446533 2458.019043,1902.965820 2462.433350,1898.558228 
	C2569.719727,1791.432861 2676.906982,1684.208252 2784.112793,1577.002319 
	C2822.753906,1538.360962 2861.526367,1499.849731 2900.003906,1461.046143 
	C2937.516602,1423.215698 2974.506348,1384.864868 3012.141846,1347.157837 
	C3044.366211,1314.872803 3077.273926,1283.270874 3109.703613,1251.189087 
	C3136.705811,1224.476440 3163.451416,1197.504272 3190.313232,1170.649536 
	C3403.556885,957.462524 3616.800049,744.274658 3830.058350,531.102356 
	C3833.589355,527.572876 3837.314941,524.238037 3841.474854,520.406128 
	C3842.000000,530.044189 3842.000000,540.088379 3842.000000,551.066345 
	C3837.803711,555.202515 3833.175293,557.972534 3829.473145,561.670044 
	C3702.834961,688.160767 3576.284180,814.739075 3449.721680,941.305481 
	C3284.977783,1106.053589 3120.234619,1270.802124 2955.490234,1435.549927 
	C2943.036133,1448.004395 2943.033203,1448.004517 2955.517822,1460.489624 
	C3018.681152,1523.655273 3081.853760,1586.811768 3144.989746,1650.004272 
	C3149.223389,1654.241699 3153.183350,1658.752563 3157.935547,1664.282471 
	C3162.132324,1671.844604 3167.113281,1676.750244 3173.731201,1679.950562 
	C3177.694824,1683.502441 3181.837646,1686.875000 3185.596436,1690.632080 
	C3331.990479,1836.966797 3478.347412,1983.338623 3624.727783,2129.687012 
	C3628.023193,2132.981445 3631.538330,2136.056152 3635.726074,2140.262939 
	C3640.891846,2146.172119 3645.282227,2151.052002 3650.234619,2156.319824 
	C3654.713135,2160.317871 3658.760986,2163.796387 3662.526611,2167.557373 
	C3718.179199,2223.144043 3773.766602,2278.796387 3829.482422,2334.319336 
	C3833.189209,2338.013428 3837.806396,2340.794434 3842.000000,2344.000000 
	C3842.000000,2354.044189 3842.000000,2364.088379 3841.471680,2374.664551 
	C3838.015869,2372.486572 3834.995361,2369.870361 3832.176025,2367.052490 
	C3770.059814,2304.972900 3707.956299,2242.880615 3645.894043,2180.747070 
	C3642.379150,2177.227783 3639.239746,2173.333008 3635.646484,2169.030273 
	C3631.559326,2162.352783 3627.638184,2156.414551 3619.177490,2156.770264 
	C3614.730957,2151.426025 3610.675049,2145.692139 3605.781982,2140.794189 
	C3461.776367,1996.651611 3317.683105,1852.596558 3173.631592,1708.499512 
	C3169.167236,1704.033813 3164.997803,1699.273193 3160.026367,1693.513428 
	C3155.821777,1686.036621 3150.979492,1681.070190 3143.716797,1677.667603 
	C3139.029297,1673.397827 3134.778076,1669.651367 3130.777588,1665.653564 
	C3068.327393,1603.245117 3005.910400,1540.802734 2943.480469,1478.373901 
	C2940.417969,1475.311523 2937.437012,1472.149170 2934.182861,1469.302002 
	C2929.087158,1464.843872 2927.155762,1464.863770 2922.104004,1469.113892 
	C2920.070312,1470.825073 2918.248291,1472.791626 2916.366211,1474.678101 
	C2806.960938,1584.357666 2697.606201,1694.087402 2588.132324,1803.698364 
	C2550.937500,1840.939941 2513.399902,1877.839600 2476.152100,1915.028687 
	C2472.206543,1918.967896 2469.158936,1923.806152 2465.143555,1928.118896 
	C2455.952637,1928.649048 2453.401855,1935.629883 2449.603271,1942.279053 
	C2445.415283,1946.090454 2441.673828,1949.402954 2438.144531,1952.927734 
	C2404.689209,1986.338501 2371.272949,2019.788086 2337.839844,2053.220947 
	C2226.475342,2164.586182 2115.091797,2275.932373 2003.804810,2387.374756 
	C1999.402466,2391.783203 1995.914062,2397.104004 1992.000000,2402.000000 
	C1979.957642,2402.000000 1967.915405,2402.000000 1954.936523,2402.000000 
	C1950.339233,2397.324219 1947.119507,2392.208252 1942.953613,2388.036865 
	C1816.956909,2261.879639 1690.869995,2135.812500 1564.791016,2009.737183 
	C1226.616455,1671.572998 888.437744,1333.412964 550.280640,995.231445 
	C546.987305,991.937805 543.964417,988.373779 540.815063,983.875854 
	C544.699829,979.216370 548.584778,975.617065 553.115967,972.167725 
	C558.478210,975.889709 563.691650,978.963806 567.838440,983.105713 
	C712.819458,1127.916260 857.698547,1272.828857 1002.597717,1417.721313 
	C1015.982910,1431.105957 1016.005859,1431.093384 1029.029785,1418.073120 
	C1094.300537,1352.819702 1159.576782,1287.571899 1224.821899,1222.293091 
	C1230.236572,1216.875610 1235.434570,1211.241821 1241.371826,1205.572510 
	C1248.830566,1202.549438 1255.116455,1199.247681 1254.537109,1189.859131 
	C1259.763916,1185.794312 1264.688843,1182.331055 1268.884888,1178.138550 
	C1411.730835,1035.412476 1554.511963,892.621765 1697.279541,749.817322 
	C1703.873047,743.222229 1710.254639,736.415283 1717.379150,729.577026 
	C1725.376343,727.004761 1730.172607,722.217468 1732.303711,714.037720 
	C1736.021484,710.646301 1739.279907,707.789429 1742.338623,704.732666 
	C1811.592041,635.522217 1880.828369,566.294800 1950.054932,497.057404 
	C1963.036621,484.073608 1963.027832,484.031097 1950.358521,471.364380 
	C1865.814209,386.836731 1781.256348,302.322540 1696.714355,217.792480 
	C1635.249146,156.335876 1573.774658,94.888565 1512.409424,33.332371 
	C1508.480957,29.391687 1505.459473,24.546783 1502.380859,19.565107 
	C1506.786865,15.175667 1510.828125,11.343616 1514.869385,7.511536 
z"/>
<path fill="#0D0D0D" opacity="1.000000" stroke="none" 
	d="
M2.000005,1004.000000 
	C2.000000,861.291565 2.000000,718.583069 2.631373,574.686829 
	C6.886755,570.620239 10.801497,568.037231 14.084334,564.811279 
	C28.099445,551.039001 41.907063,537.055786 55.831364,523.190613 
	C66.311752,512.754761 67.797783,512.770508 78.311813,523.283997 
	C164.508896,609.476196 250.693420,695.680969 336.892273,781.871338 
	C399.067078,844.039978 461.257965,906.192444 523.125488,968.997437 
	C506.536072,986.762329 490.569702,1004.186584 473.931244,1020.943481 
	C427.008545,1068.200317 379.804443,1115.177612 332.725311,1162.279053 
	C325.193207,1169.814819 317.881775,1177.577759 310.187500,1184.942261 
	C304.920868,1189.983276 302.957825,1189.782715 297.444733,1185.022461 
	C295.935486,1183.719238 294.559082,1182.259766 293.146698,1180.847168 
	C256.654144,1144.349731 220.165543,1107.848389 183.674866,1071.349121 
	C146.948685,1034.614502 110.230148,997.872131 73.488739,961.152649 
	C60.879948,948.551453 60.844654,948.570251 48.577328,960.824097 
	C36.562775,972.825623 24.675644,984.958008 12.486277,996.778931 
	C9.482010,999.692444 5.521139,1001.619507 2.000005,1004.000000 
z"/>
<path fill="#0D0D0D" opacity="1.000000" stroke="none" 
	d="
M1992.937256,2402.000000 
	C1995.914062,2397.104004 1999.402466,2391.783203 2003.804810,2387.374756 
	C2115.091797,2275.932373 2226.475342,2164.586182 2337.839844,2053.220947 
	C2371.272949,2019.788086 2404.689209,1986.338501 2438.144531,1952.927734 
	C2441.673828,1949.402954 2445.415283,1946.090454 2450.119629,1942.698242 
	C2474.099365,1965.906982 2496.949707,1989.164429 2519.950684,2012.272095 
	C2564.570557,2057.099609 2609.280518,2101.838135 2653.941406,2146.624512 
	C2665.276611,2157.991943 2665.263916,2158.019287 2653.955078,2169.327148 
	C2580.511719,2242.767090 2507.058594,2316.197754 2433.634521,2389.656982 
	C2429.639160,2393.654053 2425.872803,2397.880371 2422.000000,2402.000000 
	C2279.291504,2402.000000 2136.583008,2402.000000 1992.937256,2402.000000 
z"/>
<path fill="#2E2E2E" opacity="1.000000" stroke="none" 
	d="
M2.000005,1004.932251 
	C5.521139,1001.619507 9.482010,999.692444 12.486277,996.778931 
	C24.675644,984.958008 36.562775,972.825623 48.577328,960.824097 
	C60.844654,948.570251 60.879948,948.551453 73.488739,961.152649 
	C110.230148,997.872131 146.948685,1034.614502 183.674866,1071.349121 
	C220.165543,1107.848389 256.654144,1144.349731 293.146698,1180.847168 
	C294.559082,1182.259766 295.935486,1183.719238 297.444733,1185.022461 
	C302.957825,1189.782715 304.920868,1189.983276 310.187500,1184.942261 
	C317.881775,1177.577759 325.193207,1169.814819 332.725311,1162.279053 
	C379.804443,1115.177612 427.008545,1068.200317 473.931244,1020.943481 
	C490.569702,1004.186584 506.536072,986.762329 523.577759,968.667847 
	C528.935791,963.272278 533.525391,958.851624 538.731323,954.125854 
	C543.109314,950.560791 547.101685,947.529663 550.596802,944.005371 
	C583.650330,910.675293 616.538635,877.181152 649.634644,843.893555 
	C683.688171,809.642944 717.922424,775.571899 752.073669,741.418396 
	C764.862976,728.628174 765.421875,729.864624 752.313965,716.759277 
	C642.308777,606.776184 532.339783,496.756836 422.318268,386.790039 
	C384.389282,348.879883 346.342651,311.087433 308.464294,272.595062 
	C310.501099,264.839142 315.503632,260.693542 322.008362,257.993530 
	C367.051514,302.949738 412.123047,347.877563 457.132111,392.867889 
	C560.583984,496.276794 664.004272,599.717224 767.440491,703.141724 
	C778.879761,714.579712 778.908447,714.589478 790.022217,703.463867 
	C897.164673,596.207458 1004.355652,488.999420 1111.408325,381.653595 
	C1150.929565,342.024170 1190.120483,302.065491 1229.462036,262.257019 
	C1229.696289,262.020081 1229.932739,261.785217 1230.164917,261.546295 
	C1238.760620,252.701340 1238.855347,251.531296 1230.390381,242.978592 
	C1216.796143,229.243408 1203.085083,215.623871 1189.420410,201.958389 
	C1127.222778,139.756836 1065.009033,77.571259 1002.862915,15.318343 
	C999.125366,11.574302 995.923706,7.295312 992.236328,2.632617 
	C1001.378479,2.000000 1010.757019,2.000000 1021.219849,2.668848 
	C1025.426270,7.184366 1028.238770,11.339446 1031.717651,14.830713 
	C1074.527344,57.793293 1117.430298,100.663193 1160.318115,143.547958 
	C1188.595703,171.823639 1216.854980,200.118088 1245.193359,228.332718 
	C1254.129883,237.230042 1255.542969,237.235504 1264.524658,228.154510 
	C1274.128296,218.444458 1283.308716,208.314606 1292.951904,198.645142 
	C1337.897583,153.576660 1382.947632,108.612312 1427.942505,63.592854 
	C1444.432617,47.093693 1460.891846,30.563457 1477.320801,14.003442 
	C1480.575684,10.722674 1484.511963,7.584172 1482.000000,2.000000 
	C1492.709839,2.000000 1503.419800,2.000000 1515.064819,2.000001 
	C1515.732788,3.380600 1515.465698,4.761199 1515.033936,6.826680 
	C1510.828125,11.343616 1506.786865,15.175667 1501.785400,19.854576 
	C1497.334839,23.759155 1493.654785,26.627270 1490.382080,29.902496 
	C1420.704712,99.633156 1351.080566,169.416977 1281.426025,239.170547 
	C1267.998047,252.617615 1268.403687,251.599884 1281.507202,264.704254 
	C1403.485352,386.690735 1525.461792,508.679169 1647.471924,630.633667 
	C1675.499268,658.648071 1703.654785,686.534058 1731.751221,714.479126 
	C1730.172607,722.217468 1725.376343,727.004761 1716.921387,729.052979 
	C1712.808716,725.544373 1709.843018,722.384644 1706.780396,719.321899 
	C1559.969116,572.496887 1413.150269,425.679413 1266.328857,278.864532 
	C1254.049072,266.585236 1253.990112,266.548737 1241.459961,279.144348 
	C1145.802490,375.301514 1050.196167,471.509705 954.508972,567.637207 
	C904.433411,617.943115 854.225769,668.117615 804.079590,718.353271 
	C793.389404,729.062561 793.386902,729.072266 803.819458,739.504761 
	C948.988281,884.673157 1094.161499,1029.837158 1239.317383,1175.018555 
	C1244.263794,1179.965698 1249.039795,1185.082764 1253.895264,1190.120728 
	C1255.116455,1199.247681 1248.830566,1202.549438 1240.915771,1205.046387 
	C1236.112549,1200.831421 1232.454468,1196.956421 1228.688354,1193.189087 
	C1167.239746,1131.717529 1105.776733,1070.260254 1044.318237,1008.798584 
	C959.076843,923.552917 873.839417,838.303284 788.591370,753.064270 
	C779.188782,743.662598 778.840759,743.685425 769.603333,752.822327 
	C769.366516,753.056458 769.132874,753.293823 768.897461,753.529358 
	C699.217834,823.253418 629.526978,892.966309 559.899170,962.742126 
	C557.117676,965.529602 554.932678,968.912415 552.469788,972.017822 
	C548.584778,975.617065 544.699829,979.216370 540.424927,983.331055 
	C536.298950,987.148010 532.371643,990.258484 528.855408,993.779541 
	C462.673798,1060.050903 396.539825,1126.369873 330.398712,1192.681763 
	C317.739471,1205.373779 317.765015,1205.433716 330.166748,1217.835815 
	C592.949463,1480.626587 855.723999,1743.425659 1118.507324,2006.215820 
	C1245.538940,2133.250977 1372.592896,2260.263184 1499.590454,2387.332031 
	C1503.807861,2391.551758 1507.520874,2396.275391 1511.734497,2401.382080 
	C1501.955811,2402.000000 1491.911621,2402.000000 1480.933716,2402.000000 
	C1477.650269,2393.015137 1470.149292,2387.904297 1464.173462,2381.900146 
	C1425.402344,2342.945557 1386.286865,2304.333984 1347.383057,2265.510986 
	C1313.902466,2232.100342 1280.522827,2198.588135 1247.153931,2165.065918 
	C1213.078735,2130.834229 1179.153442,2096.453125 1145.006836,2062.292969 
	C1119.580200,2036.856323 1093.796387,2011.776733 1068.363892,1986.345947 
	C1016.531921,1934.518066 964.856812,1882.533447 913.057190,1830.673218 
	C897.517517,1815.115356 881.710266,1799.824829 866.145874,1784.291260 
	C826.768005,1744.991211 787.396667,1705.683960 748.138428,1666.264282 
	C707.240356,1625.197876 666.514587,1583.960083 625.643066,1542.867310 
	C598.633606,1515.711548 571.503967,1488.675293 544.421021,1461.592773 
	C505.789398,1422.961792 467.183502,1384.304932 428.506531,1345.719360 
	C389.357727,1306.663208 350.143097,1267.673096 310.939026,1228.672363 
	C303.952362,1221.722046 302.237427,1221.724121 294.732300,1229.238770 
	C226.688049,1297.369141 158.681244,1365.536865 90.654594,1433.684692 
	C86.653152,1437.693115 82.754654,1441.831543 78.486816,1445.539673 
	C73.569527,1449.812256 70.999161,1449.348267 65.758759,1444.084473 
	C60.472694,1438.774780 60.096935,1436.371582 64.331917,1431.366699 
	C66.907631,1428.322754 69.860657,1425.594116 72.686584,1422.766113 
	C140.757828,1354.646606 208.816818,1286.514893 276.926147,1218.433472 
	C290.173798,1205.191162 288.053741,1206.278564 277.120514,1195.273438 
	C238.148819,1156.045288 199.302948,1116.691650 160.218018,1077.576782 
	C129.837616,1047.173218 99.199104,1017.027283 68.613762,986.829102 
	C61.047153,979.358276 59.447166,979.416199 51.506081,987.257874 
	C38.702690,999.901001 26.086426,1012.733887 13.254646,1025.347778 
	C10.200964,1028.349487 6.607642,1030.802490 2.631264,1033.753906 
	C2.000000,1024.621460 2.000000,1015.242981 2.000005,1004.932251 
z"/>
<path fill="#0D0D0D" opacity="1.000000" stroke="none" 
	d="
M530.000000,2402.000000 
	C384.624878,2402.000000 239.249756,2402.000000 92.674652,2401.375977 
	C88.820930,2397.383545 86.466545,2393.718262 83.465683,2390.694580 
	C60.082970,2367.133545 36.630806,2343.640625 13.043470,2320.284912 
	C9.803871,2317.077393 5.702453,2314.740234 1.999996,2312.000000 
	C2.000000,2203.958252 2.000000,2095.916504 2.618964,1986.665283 
	C6.589195,1982.753174 10.191038,1980.305542 13.247462,1977.302734 
	C25.132462,1965.625854 36.831718,1953.760010 48.624420,1941.988892 
	C60.297066,1930.337646 61.724236,1930.404175 73.220383,1942.172729 
	C91.602867,1960.990845 109.962173,1979.833008 128.490173,1998.507324 
	C151.481674,2021.680664 174.574051,2044.755005 197.736053,2067.758301 
	C220.190308,2090.058594 242.909058,2112.093506 265.289520,2134.467285 
	C288.843018,2158.013672 312.132507,2181.824219 335.543152,2205.513428 
	C336.245087,2206.223633 337.036499,2206.844482 337.746094,2207.547607 
	C362.350525,2231.926758 387.010162,2256.250488 411.535522,2280.708740 
	C444.554443,2313.637451 477.547455,2346.592529 510.366333,2379.719971 
	C517.321167,2386.740234 523.476379,2394.552490 530.000000,2402.000000 
z"/>
<path fill="#2E2E2E" opacity="1.000000" stroke="none" 
	d="
M1256.279907,1221.378296 
	C1259.708618,1215.368896 1261.802979,1207.931152 1271.340088,1207.956787 
	C1292.027588,1228.015747 1312.211304,1247.892822 1332.242798,1267.922241 
	C1539.646240,1475.302612 1747.028442,1682.703979 1954.403564,1890.112671 
	C1968.657349,1904.368652 1967.568237,1903.814575 1981.482666,1889.902100 
	C2047.004883,1824.390137 2112.530029,1758.881470 2178.039307,1693.356445 
	C2190.257812,1681.135010 2190.375488,1680.696899 2178.570801,1668.773926 
	C2112.450439,1601.991699 2046.252808,1535.286133 1980.092041,1468.543945 
	C1975.634888,1464.047485 1971.055786,1459.645874 1966.913696,1454.870239 
	C1962.822021,1450.152588 1963.240112,1448.479980 1968.493286,1443.089722 
	C1974.169678,1437.264893 1976.347168,1436.762817 1981.049561,1440.619019 
	C1983.359741,1442.513672 1985.391602,1444.753174 1987.509277,1446.876831 
	C2031.987305,1491.482300 2076.520752,1536.032593 2120.908447,1580.728027 
	C2144.387451,1604.370117 2167.609619,1628.267334 2190.949219,1652.047729 
	C2192.583496,1653.712646 2194.211182,1655.385010 2195.879639,1657.015137 
	C2204.088867,1665.034180 2205.868652,1665.084229 2213.899902,1657.441772 
	C2216.313965,1655.144653 2218.648438,1652.763672 2221.005127,1650.407104 
	C2522.191650,1349.213867 2823.375488,1048.018066 3124.562500,746.825317 
	C3360.468262,510.914429 3596.376953,275.006317 3832.291748,39.104420 
	C3835.118896,36.277626 3838.044189,33.549137 3841.461914,30.387341 
	C3842.000000,40.044186 3842.000000,50.088367 3842.000000,61.066277 
	C3837.726807,64.990692 3832.904053,67.429581 3829.262695,71.054863 
	C3773.764893,126.306473 3718.453125,181.744675 3663.030518,237.072205 
	C3626.010010,274.029510 3588.813477,310.810608 3551.824219,347.799072 
	C3514.595459,385.027344 3477.593018,422.481628 3440.374512,459.719971 
	C3319.762939,580.395630 3199.096680,701.016418 3078.453613,821.660400 
	C3009.887451,890.227295 2941.325928,958.798523 2872.761719,1027.367554 
	C2796.182861,1103.951538 2719.638428,1180.569946 2643.007812,1257.101929 
	C2613.069580,1287.001587 2582.814697,1316.584961 2552.914062,1346.521973 
	C2445.060303,1454.507324 2337.295898,1562.581909 2229.497559,1670.622925 
	C2229.026855,1671.094604 2228.552490,1671.562622 2228.087402,1672.040039 
	C2219.922607,1680.420898 2219.866699,1681.139160 2228.347900,1689.649170 
	C2277.748047,1739.216309 2327.225098,1788.706909 2376.584229,1838.314819 
	C2400.081543,1861.930298 2423.376221,1885.747803 2447.266602,1909.916504 
	C2449.206543,1919.712402 2442.649170,1922.740356 2434.682129,1925.115723 
	C2432.227539,1923.250488 2430.908447,1921.744019 2429.497559,1920.329224 
	C2358.209961,1848.846802 2286.914307,1777.372192 2215.617188,1705.899170 
	C2214.440918,1704.720093 2213.288086,1703.507568 2212.023926,1702.427856 
	C2206.322266,1697.558228 2203.803467,1697.346191 2198.148438,1702.227051 
	C2192.101318,1707.446655 2186.209473,1712.877319 2180.577148,1718.541260 
	C2135.481934,1763.890747 2090.552246,1809.404663 2045.387085,1854.683960 
	C2022.567627,1877.561035 1999.367554,1900.058350 1976.330322,1922.718140 
	C1974.906616,1924.118530 1973.441040,1925.482666 1971.924561,1926.781494 
	C1968.967041,1929.314087 1965.849731,1929.466309 1962.918091,1926.861450 
	C1959.684204,1923.988281 1956.561768,1920.981567 1953.501831,1917.921997 
	C1725.195068,1689.643799 1496.900757,1461.353027 1268.589355,1233.079468 
	C1264.587158,1229.078003 1260.387451,1225.274292 1256.279907,1221.378296 
z"/>
<path fill="#0D0D0D" opacity="1.000000" stroke="none" 
	d="
M1.999999,544.000000 
	C2.000000,389.958221 2.000000,235.916428 2.661606,80.760033 
	C6.706727,77.013130 10.380446,74.677071 13.422904,71.696617 
	C25.787882,59.583633 37.942398,47.256088 50.207165,35.040436 
	C60.211201,25.076466 60.573360,25.073298 70.737259,35.228539 
	C102.057457,66.522064 133.335464,97.857841 164.666779,129.140228 
	C207.069351,171.476593 249.506180,213.778671 291.667725,256.712524 
	C288.739868,260.706879 286.390778,264.404633 283.358856,267.414612 
	C208.404495,341.826172 133.367126,416.154083 58.373318,490.525909 
	C43.474350,505.301300 28.781109,520.285217 13.792092,534.967834 
	C10.281111,538.407043 5.952457,541.011475 1.999999,544.000000 
z"/>
<path fill="#0D0D0D" opacity="1.000000" stroke="none" 
	d="
M70.000000,2.000000 
	C228.041794,2.000000 386.083588,2.000000 544.803955,2.626345 
	C543.057434,6.397276 540.944580,9.853638 538.161743,12.640974 
	C464.501312,86.420074 390.790222,160.148590 316.992218,233.790009 
	C313.754883,237.020493 309.614441,239.345947 305.386627,241.668991 
	C274.742126,211.215149 244.576767,181.214188 214.475952,151.148605 
	C169.322815,106.048286 124.197273,60.920254 79.118881,15.745247 
	C75.200775,11.818748 70.331718,8.371584 70.000000,2.000000 
z"/>
<path fill="#0D0D0D" opacity="1.000000" stroke="none" 
	d="
M1481.062744,2.000000 
	C1484.511963,7.584172 1480.575684,10.722674 1477.320801,14.003442 
	C1460.891846,30.563457 1444.432617,47.093693 1427.942505,63.592854 
	C1382.947632,108.612312 1337.897583,153.576660 1292.951904,198.645142 
	C1283.308716,208.314606 1274.128296,218.444458 1264.524658,228.154510 
	C1255.542969,237.235504 1254.129883,237.230042 1245.193359,228.332718 
	C1216.854980,200.118088 1188.595703,171.823639 1160.318115,143.547958 
	C1117.430298,100.663193 1074.527344,57.793293 1031.717651,14.830713 
	C1028.238770,11.339446 1025.426270,7.184366 1022.152100,2.668848 
	C1174.708496,2.000000 1327.416870,2.000000 1481.062744,2.000000 
z"/>
<path fill="#0D0D0D" opacity="1.000000" stroke="none" 
	d="
M3635.925537,2169.612793 
	C3639.239746,2173.333008 3642.379150,2177.227783 3645.894043,2180.747070 
	C3707.956299,2242.880615 3770.059814,2304.972900 3832.176025,2367.052490 
	C3834.995361,2369.870361 3838.015869,2372.486572 3841.471680,2375.598145 
	C3842.000000,2384.650146 3842.000000,2393.300537 3842.000000,2402.000000 
	C3697.291504,2402.000000 3552.583008,2402.000000 3407.063721,2401.322021 
	C3409.564697,2396.551025 3412.539062,2392.121338 3416.238037,2388.414551 
	C3485.260010,2319.246338 3554.359619,2250.155029 3623.479736,2181.084473 
	C3627.467529,2177.099854 3631.769775,2173.429443 3635.925537,2169.612793 
z"/>
<path fill="#0D0D0D" opacity="1.000000" stroke="none" 
	d="
M2904.000000,2402.000000 
	C2754.624756,2402.000000 2605.249756,2402.000000 2455.064941,2401.322266 
	C2456.872803,2397.256104 2459.155762,2393.534424 2462.156006,2390.528564 
	C2531.050049,2321.495361 2600.016113,2252.533936 2668.986328,2183.576904 
	C2679.921631,2172.643799 2680.033691,2172.624268 2690.974365,2183.698975 
	C2728.855469,2222.044922 2766.622559,2260.503906 2804.566895,2298.787354 
	C2834.793945,2329.284424 2865.272949,2359.531982 2895.473633,2390.055176 
	C2898.870117,2393.488037 2901.184082,2397.992432 2904.000000,2402.000000 
z"/>
<path fill="#0D0D0D" opacity="1.000000" stroke="none" 
	d="
M3842.000000,2343.062744 
	C3837.806396,2340.794434 3833.189209,2338.013428 3829.482422,2334.319336 
	C3773.766602,2278.796387 3718.179199,2223.144043 3662.526611,2167.557373 
	C3658.760986,2163.796387 3654.713135,2160.317871 3650.621582,2155.760254 
	C3651.520020,2153.542969 3652.507324,2152.187500 3653.678223,2151.015381 
	C3713.397949,2091.233398 3773.113037,2031.446411 3832.939941,1971.771851 
	C3835.415771,1969.302368 3838.955811,1967.899780 3842.000000,1966.000000 
	C3842.000000,2091.375244 3842.000000,2216.750244 3842.000000,2343.062744 
z"/>
<path fill="#2E2E2E" opacity="1.000000" stroke="none" 
	d="
M2904.932129,2402.000000 
	C2901.184082,2397.992432 2898.870117,2393.488037 2895.473633,2390.055176 
	C2865.272949,2359.531982 2834.793945,2329.284424 2804.566895,2298.787354 
	C2766.622559,2260.503906 2728.855469,2222.044922 2690.974365,2183.698975 
	C2680.033691,2172.624268 2679.921631,2172.643799 2668.986328,2183.576904 
	C2600.016113,2252.533936 2531.050049,2321.495361 2462.156006,2390.528564 
	C2459.155762,2393.534424 2456.872803,2397.256104 2454.127930,2401.322266 
	C2443.955811,2402.000000 2433.911621,2402.000000 2422.933594,2402.000000 
	C2425.872803,2397.880371 2429.639160,2393.654053 2433.634521,2389.656982 
	C2507.058594,2316.197754 2580.511719,2242.767090 2653.955078,2169.327148 
	C2665.263916,2158.019287 2665.276611,2157.991943 2653.941406,2146.624512 
	C2609.280518,2101.838135 2564.570557,2057.099609 2519.950684,2012.272095 
	C2496.949707,1989.164429 2474.099365,1965.906982 2450.664551,1942.297729 
	C2453.401855,1935.629883 2455.952637,1928.649048 2465.624023,1928.582764 
	C2470.766357,1933.520264 2474.771484,1937.990723 2479.003662,1942.234619 
	C2542.064209,2005.469482 2605.154053,2068.674561 2668.237793,2131.885986 
	C2679.795898,2143.467285 2679.809570,2143.478027 2691.659424,2131.628906 
	C2839.166016,1984.130615 2986.671631,1836.631714 3134.151855,1689.107422 
	C3137.676514,1685.581421 3140.904053,1681.758423 3144.270020,1678.073975 
	C3150.979492,1681.070190 3155.821777,1686.036621 3159.628906,1692.947998 
	C3154.809326,1698.310913 3149.595215,1702.974976 3144.655762,1707.913574 
	C2999.325684,1853.212402 2854.026855,1998.542236 2708.710205,2143.854492 
	C2693.310547,2159.253662 2693.883057,2157.620361 2708.492920,2172.347168 
	C2780.735596,2245.168701 2852.986816,2317.981934 2925.185059,2390.847412 
	C2928.208496,2393.898438 2930.739014,2397.437256 2933.749512,2401.374512 
	C2924.621338,2402.000000 2915.242920,2402.000000 2904.932129,2402.000000 
z"/>
<path fill="#2E2E2E" opacity="1.000000" stroke="none" 
	d="
M1732.986816,745.891479 
	C1733.880249,737.500671 1738.907349,732.924927 1746.968018,730.457336 
	C1756.262085,739.148926 1764.837280,748.001953 1773.548218,756.719482 
	C1834.305542,817.523193 1895.090088,878.299927 1955.868652,939.082581 
	C1967.719971,950.934631 1967.771973,950.974487 1979.911377,938.781250 
	C2017.517212,901.008606 2055.021729,863.134644 2092.689697,825.424072 
	C2118.342285,799.742310 2144.283447,774.348633 2169.943848,748.674438 
	C2187.592529,731.016174 2204.894531,713.011902 2222.516846,695.326599 
	C2233.330322,684.474243 2244.575684,674.052429 2255.419922,663.229675 
	C2304.459229,614.287842 2353.481934,565.328796 2402.395508,516.261292 
	C2431.312500,487.253326 2459.910400,457.927124 2488.849609,428.941528 
	C2509.789551,407.967743 2531.196533,387.460144 2552.139160,366.488739 
	C2578.728027,339.863342 2604.946533,312.867859 2631.529541,286.236603 
	C2659.999756,257.714722 2688.785645,229.508072 2717.291016,201.021164 
	C2746.730713,171.600540 2775.905273,141.914551 2805.367432,112.516571 
	C2838.143311,79.812065 2871.142090,47.331001 2903.955566,14.664155 
	C2907.460938,11.174275 2910.376953,7.092113 2913.783203,2.642362 
	C2923.378662,2.000000 2932.757080,2.000000 2943.067871,2.000000 
	C2940.687744,5.724084 2937.555908,9.628245 2934.037842,13.146685 
	C2621.425293,325.805420 2308.782959,638.434570 1996.141113,951.064514 
	C1988.837524,958.367737 1981.654907,965.799377 1974.161011,972.902283 
	C1968.448486,978.316711 1966.433350,978.260376 1960.625122,972.944092 
	C1955.713501,968.448425 1951.096680,963.628723 1946.384521,958.917419 
	C1878.761353,891.308105 1811.145996,823.690674 1743.519043,756.085022 
	C1740.220581,752.787842 1736.831543,749.581299 1732.986816,745.891479 
z"/>
<path fill="#1C1C1C" opacity="1.000000" stroke="none" 
	d="
M305.894653,242.092957 
	C309.614441,239.345947 313.754883,237.020493 316.992218,233.790009 
	C390.790222,160.148590 464.501312,86.420074 538.161743,12.640974 
	C540.944580,9.853638 543.057434,6.397276 545.741211,2.626345 
	C555.378479,2.000000 564.757019,2.000000 575.067749,1.999993 
	C572.410706,5.922402 568.965271,9.988573 565.210938,13.746081 
	C487.835297,91.186615 410.419891,168.587402 333.035339,246.019073 
	C329.512024,249.544556 326.204102,253.285263 322.402100,257.459625 
	C315.503632,260.693542 310.501099,264.839142 307.824707,272.964844 
	C303.228271,277.141479 299.091888,280.007538 295.587219,283.506409 
	C228.409271,350.573029 161.298904,417.707397 94.192635,484.845795 
	C82.344063,496.700012 82.367233,497.468384 94.358086,509.464569 
	C141.443649,556.571045 188.540588,603.666199 235.636536,650.762329 
	C333.140381,748.266785 430.652557,845.762878 528.126160,943.297546 
	C531.645508,946.819031 534.793762,950.711426 538.114990,954.430908 
	C533.525391,958.851624 528.935791,963.272278 523.893921,968.022583 
	C461.257965,906.192444 399.067078,844.039978 336.892273,781.871338 
	C250.693420,695.680969 164.508896,609.476196 78.311813,523.283997 
	C67.797783,512.770508 66.311752,512.754761 55.831364,523.190613 
	C41.907063,537.055786 28.099445,551.039001 14.084334,564.811279 
	C10.801497,568.037231 6.886755,570.620239 2.631373,573.749512 
	C2.000000,564.621521 2.000000,555.242981 1.999999,544.932251 
	C5.952457,541.011475 10.281111,538.407043 13.792092,534.967834 
	C28.781109,520.285217 43.474350,505.301300 58.373318,490.525909 
	C133.367126,416.154083 208.404495,341.826172 283.358856,267.414612 
	C286.390778,264.404633 288.739868,260.706879 292.370056,256.561890 
	C300.292450,253.768784 304.642212,249.350723 305.894653,242.092957 
z"/>
<path fill="#2E2E2E" opacity="1.000000" stroke="none" 
	d="
M3174.104736,1679.384399 
	C3167.113281,1676.750244 3162.132324,1671.844604 3158.322510,1664.839355 
	C3162.203857,1660.415161 3166.504395,1656.721680 3170.501953,1652.725098 
	C3389.213379,1434.066406 3607.898193,1215.381470 3826.595215,996.708679 
	C3831.307373,991.997131 3836.130371,987.397095 3841.450684,982.372437 
	C3842.000000,992.044189 3842.000000,1002.088379 3842.000000,1013.066284 
	C3837.772705,1017.085388 3833.054688,1019.678711 3829.391357,1023.329834 
	C3768.500488,1084.010986 3707.739990,1144.822998 3646.953613,1205.608887 
	C3493.809326,1358.751465 3340.663086,1511.891968 3187.538330,1665.053955 
	C3183.068115,1669.525146 3178.826416,1674.224976 3174.104736,1679.384399 
z"/>
<path fill="#2E2E2E" opacity="1.000000" stroke="none" 
	d="
M530.932251,2402.000000 
	C523.476379,2394.552490 517.321167,2386.740234 510.366333,2379.719971 
	C477.547455,2346.592529 444.554443,2313.637451 411.535522,2280.708740 
	C387.010162,2256.250488 362.350525,2231.926758 337.746094,2207.547607 
	C337.036499,2206.844482 336.245087,2206.223633 335.543152,2205.513428 
	C312.132507,2181.824219 288.843018,2158.013672 265.289520,2134.467285 
	C242.909058,2112.093506 220.190308,2090.058594 197.736053,2067.758301 
	C174.574051,2044.755005 151.481674,2021.680664 128.490173,1998.507324 
	C109.962173,1979.833008 91.602867,1960.990845 73.220383,1942.172729 
	C61.724236,1930.404175 60.297066,1930.337646 48.624420,1941.988892 
	C36.831718,1953.760010 25.132462,1965.625854 13.247462,1977.302734 
	C10.191038,1980.305542 6.589195,1982.753174 2.618964,1985.727905 
	C2.000000,1976.621460 2.000000,1967.243042 1.999999,1956.932251 
	C5.804159,1953.485474 10.100290,1951.480347 13.325396,1948.366089 
	C25.779379,1936.340332 37.878620,1923.947754 50.143311,1911.725220 
	C52.261932,1909.613892 54.256607,1907.063843 56.840496,1905.835449 
	C58.817699,1904.895630 62.013649,1904.963013 63.982719,1905.949219 
	C66.547508,1907.234009 68.489380,1909.816284 70.606491,1911.933105 
	C231.195450,2072.504883 391.776001,2233.085205 552.345642,2393.676270 
	C554.697937,2396.028809 556.903015,2398.528564 559.588379,2401.479736 
	C550.621521,2402.000000 541.242981,2402.000000 530.932251,2402.000000 
z"/>
<path fill="#2E2E2E" opacity="1.000000" stroke="none" 
	d="
M305.386627,241.668991 
	C304.642212,249.350723 300.292450,253.768784 292.630676,255.944839 
	C249.506180,213.778671 207.069351,171.476593 164.666779,129.140228 
	C133.335464,97.857841 102.057457,66.522064 70.737259,35.228539 
	C60.573360,25.073298 60.211201,25.076466 50.207165,35.040436 
	C37.942398,47.256088 25.787882,59.583633 13.422904,71.696617 
	C10.380446,74.677071 6.706727,77.013130 2.661606,79.822716 
	C2.000000,71.286201 2.000000,62.572403 2.672739,52.780022 
	C5.778725,50.055706 8.531905,48.735577 10.592649,46.710732 
	C22.832329,34.684303 34.997444,22.578211 46.967205,10.284291 
	C49.163818,8.028189 50.348320,4.786665 52.000000,2.000000 
	C57.400028,2.000000 62.800053,2.000000 69.100037,2.000000 
	C70.331718,8.371584 75.200775,11.818748 79.118881,15.745247 
	C124.197273,60.920254 169.322815,106.048286 214.475952,151.148605 
	C244.576767,181.214188 274.742126,211.215149 305.386627,241.668991 
z"/>
<path fill="#2E2E2E" opacity="1.000000" stroke="none" 
	d="
M3635.646484,2169.030273 
	C3631.769775,2173.429443 3627.467529,2177.099854 3623.479736,2181.084473 
	C3554.359619,2250.155029 3485.260010,2319.246338 3416.238037,2388.414551 
	C3412.539062,2392.121338 3409.564697,2396.551025 3406.126465,2401.322021 
	C3396.621338,2402.000000 3387.242920,2402.000000 3376.932129,2402.000000 
	C3378.641602,2398.615723 3380.961182,2394.909424 3383.972412,2391.893799 
	C3461.977539,2313.775635 3540.054932,2235.729492 3618.648438,2157.220459 
	C3627.638184,2156.414551 3631.559326,2162.352783 3635.646484,2169.030273 
z"/>
<path fill="#2E2E2E" opacity="1.000000" stroke="none" 
	d="
M3842.000000,1965.067871 
	C3838.955811,1967.899780 3835.415771,1969.302368 3832.939941,1971.771851 
	C3773.113037,2031.446411 3713.397949,2091.233398 3653.678223,2151.015381 
	C3652.507324,2152.187500 3651.520020,2153.542969 3650.060059,2155.372314 
	C3645.282227,2151.052002 3640.891846,2146.172119 3636.264404,2140.655762 
	C3682.610840,2093.342285 3729.189209,2046.660278 3775.779541,1999.990234 
	C3793.898193,1981.840454 3812.007812,1963.681152 3830.212646,1945.618042 
	C3833.500732,1942.355713 3837.232666,1939.540405 3841.379883,1936.259399 
	C3842.000000,1945.378540 3842.000000,1954.756958 3842.000000,1965.067871 
z"/>
<path fill="#1C1C1C" opacity="1.000000" stroke="none" 
	d="
M1.999996,2312.932129 
	C5.702453,2314.740234 9.803871,2317.077393 13.043470,2320.284912 
	C36.630806,2343.640625 60.082970,2367.133545 83.465683,2390.694580 
	C86.466545,2393.718262 88.820930,2397.383545 91.737335,2401.375977 
	C73.958206,2402.000000 55.916416,2402.000000 37.200554,2401.377930 
	C38.693584,2397.831787 40.828365,2394.882568 43.035015,2391.988281 
	C47.070015,2386.696289 47.360126,2384.703857 42.691833,2379.888428 
	C31.581337,2368.427979 20.208717,2357.218262 8.781689,2346.071533 
	C6.944898,2344.279785 4.281392,2343.335938 2.000002,2342.000000 
	C2.000000,2332.621338 2.000000,2323.242920 1.999996,2312.932129 
z"/>
<path fill="#0D0D0D" opacity="1.000000" stroke="none" 
	d="
M2.000002,2342.937256 
	C4.281392,2343.335938 6.944898,2344.279785 8.781689,2346.071533 
	C20.208717,2357.218262 31.581337,2368.427979 42.691833,2379.888428 
	C47.360126,2384.703857 47.070015,2386.696289 43.035015,2391.988281 
	C40.828365,2394.882568 38.693584,2397.831787 36.263237,2401.377930 
	C24.773237,2402.000000 13.546476,2402.000000 2.000000,2402.000000 
	C2.000000,2382.625977 2.000000,2363.250244 2.000002,2342.937256 
z"/>
<path fill="#0D0D0D" opacity="1.000000" stroke="none" 
	d="
M51.062641,2.000000 
	C50.348320,4.786665 49.163818,8.028189 46.967205,10.284291 
	C34.997444,22.578211 22.832329,34.684303 10.592649,46.710732 
	C8.531905,48.735577 5.778725,50.055706 2.672739,51.850723 
	C2.000000,35.480591 2.000000,18.961185 2.000000,2.000000 
	C18.039057,2.000000 34.082169,2.000000 51.062641,2.000000 
z"/>
<path fill="#2E2E2E" opacity="1.000000" stroke="none" 
	d="
M1989.062744,1.999988 
	C1984.074951,8.681502 1978.278809,15.483667 1972.174805,21.997431 
	C1968.732422,25.670797 1964.855835,24.782711 1961.669067,21.450487 
	C1955.920166,15.439475 1950.373413,9.235262 1944.371094,2.555846 
	C1958.708496,2.000000 1973.416992,2.000000 1989.062744,1.999988 
z"/>
<path fill="#0D0D0D" opacity="1.000000" stroke="none" 
	d="
M1255.736816,1221.848145 
	C1260.387451,1225.274292 1264.587158,1229.078003 1268.589355,1233.079468 
	C1496.900757,1461.353027 1725.195068,1689.643799 1953.501831,1917.921997 
	C1956.561768,1920.981567 1959.684204,1923.988281 1962.918091,1926.861450 
	C1965.849731,1929.466309 1968.967041,1929.314087 1971.924561,1926.781494 
	C1973.441040,1925.482666 1974.906616,1924.118530 1976.330322,1922.718140 
	C1999.367554,1900.058350 2022.567627,1877.561035 2045.387085,1854.683960 
	C2090.552246,1809.404663 2135.481934,1763.890747 2180.577148,1718.541260 
	C2186.209473,1712.877319 2192.101318,1707.446655 2198.148438,1702.227051 
	C2203.803467,1697.346191 2206.322266,1697.558228 2212.023926,1702.427856 
	C2213.288086,1703.507568 2214.440918,1704.720093 2215.617188,1705.899170 
	C2286.914307,1777.372192 2358.209961,1848.846802 2429.497559,1920.329224 
	C2430.908447,1921.744019 2432.227539,1923.250488 2434.020508,1925.237305 
	C2430.606201,1929.913574 2426.895508,1934.201050 2422.896973,1938.200684 
	C2277.060791,2084.071289 2131.197510,2229.914551 1985.338379,2375.762207 
	C1974.120605,2386.979248 1973.901978,2386.986572 1962.482056,2375.566895 
	C1657.105103,2070.197754 1351.729614,1764.827637 1046.356567,1459.454834 
	C1031.932861,1445.031006 1031.950195,1445.024902 1046.407837,1430.568481 
	C1111.679077,1365.302246 1176.941895,1300.027588 1242.227295,1234.775513 
	C1246.465820,1230.539185 1250.867920,1226.466675 1255.736816,1221.848145 
z"/>
<path fill="#0D0D0D" opacity="1.000000" stroke="none" 
	d="
M1254.537109,1189.859131 
	C1249.039795,1185.082764 1244.263794,1179.965698 1239.317383,1175.018555 
	C1094.161499,1029.837158 948.988281,884.673157 803.819458,739.504761 
	C793.386902,729.072266 793.389404,729.062561 804.079590,718.353271 
	C854.225769,668.117615 904.433411,617.943115 954.508972,567.637207 
	C1050.196167,471.509705 1145.802490,375.301514 1241.459961,279.144348 
	C1253.990112,266.548737 1254.049072,266.585236 1266.328857,278.864532 
	C1413.150269,425.679413 1559.969116,572.496887 1706.780396,719.321899 
	C1709.843018,722.384644 1712.808716,725.544373 1716.277344,729.182983 
	C1710.254639,736.415283 1703.873047,743.222229 1697.279541,749.817322 
	C1554.511963,892.621765 1411.730835,1035.412476 1268.884888,1178.138550 
	C1264.688843,1182.331055 1259.763916,1185.794312 1254.537109,1189.859131 
z"/>
<path fill="#0D0D0D" opacity="1.000000" stroke="none" 
	d="
M1732.303711,714.037720 
	C1703.654785,686.534058 1675.499268,658.648071 1647.471924,630.633667 
	C1525.461792,508.679169 1403.485352,386.690735 1281.507202,264.704254 
	C1268.403687,251.599884 1267.998047,252.617615 1281.426025,239.170547 
	C1351.080566,169.416977 1420.704712,99.633156 1490.382080,29.902496 
	C1493.654785,26.627270 1497.334839,23.759155 1501.420654,20.411964 
	C1505.459473,24.546783 1508.480957,29.391687 1512.409424,33.332371 
	C1573.774658,94.888565 1635.249146,156.335876 1696.714355,217.792480 
	C1781.256348,302.322540 1865.814209,386.836731 1950.358521,471.364380 
	C1963.027832,484.031097 1963.036621,484.073608 1950.054932,497.057404 
	C1880.828369,566.294800 1811.592041,635.522217 1742.338623,704.732666 
	C1739.279907,707.789429 1736.021484,710.646301 1732.303711,714.037720 
z"/>
<path fill="#0D0D0D" opacity="1.000000" stroke="none" 
	d="
M553.115967,972.167725 
	C554.932678,968.912415 557.117676,965.529602 559.899170,962.742126 
	C629.526978,892.966309 699.217834,823.253418 768.897461,753.529358 
	C769.132874,753.293823 769.366516,753.056458 769.603333,752.822327 
	C778.840759,743.685425 779.188782,743.662598 788.591370,753.064270 
	C873.839417,838.303284 959.076843,923.552917 1044.318237,1008.798584 
	C1105.776733,1070.260254 1167.239746,1131.717529 1228.688354,1193.189087 
	C1232.454468,1196.956421 1236.112549,1200.831421 1240.277100,1205.182373 
	C1235.434570,1211.241821 1230.236572,1216.875610 1224.821899,1222.293091 
	C1159.576782,1287.571899 1094.300537,1352.819702 1029.029785,1418.073120 
	C1016.005859,1431.093384 1015.982910,1431.105957 1002.597717,1417.721313 
	C857.698547,1272.828857 712.819458,1127.916260 567.838440,983.105713 
	C563.691650,978.963806 558.478210,975.889709 553.115967,972.167725 
z"/>
<path fill="#0D0D0D" opacity="1.000000" stroke="none" 
	d="
M3143.716797,1677.667603 
	C3140.904053,1681.758423 3137.676514,1685.581421 3134.151855,1689.107422 
	C2986.671631,1836.631714 2839.166016,1984.130615 2691.659424,2131.628906 
	C2679.809570,2143.478027 2679.795898,2143.467285 2668.237793,2131.885986 
	C2605.154053,2068.674561 2542.064209,2005.469482 2479.003662,1942.234619 
	C2474.771484,1937.990723 2470.766357,1933.520264 2466.175293,1928.691162 
	C2469.158936,1923.806152 2472.206543,1918.967896 2476.152100,1915.028687 
	C2513.399902,1877.839600 2550.937500,1840.939941 2588.132324,1803.698364 
	C2697.606201,1694.087402 2806.960938,1584.357666 2916.366211,1474.678101 
	C2918.248291,1472.791626 2920.070312,1470.825073 2922.104004,1469.113892 
	C2927.155762,1464.863770 2929.087158,1464.843872 2934.182861,1469.302002 
	C2937.437012,1472.149170 2940.417969,1475.311523 2943.480469,1478.373901 
	C3005.910400,1540.802734 3068.327393,1603.245117 3130.777588,1665.653564 
	C3134.778076,1669.651367 3139.029297,1673.397827 3143.716797,1677.667603 
z"/>
<path fill="#0D0D0D" opacity="1.000000" stroke="none" 
	d="
M538.731323,954.125854 
	C534.793762,950.711426 531.645508,946.819031 528.126160,943.297546 
	C430.652557,845.762878 333.140381,748.266785 235.636536,650.762329 
	C188.540588,603.666199 141.443649,556.571045 94.358086,509.464569 
	C82.367233,497.468384 82.344063,496.700012 94.192635,484.845795 
	C161.298904,417.707397 228.409271,350.573029 295.587219,283.506409 
	C299.091888,280.007538 303.228271,277.141479 307.710144,273.611023 
	C346.342651,311.087433 384.389282,348.879883 422.318268,386.790039 
	C532.339783,496.756836 642.308777,606.776184 752.313965,716.759277 
	C765.421875,729.864624 764.862976,728.628174 752.073669,741.418396 
	C717.922424,775.571899 683.688171,809.642944 649.634644,843.893555 
	C616.538635,877.181152 583.650330,910.675293 550.596802,944.005371 
	C547.101685,947.529663 543.109314,950.560791 538.731323,954.125854 
z"/>
</svg>